# This file uses centimeters as units for non-parametric coordinates.

mtllib Stone_Path_1.mtl
g default
v 18.651516 -1.247567 -34.002869
v 21.024071 -1.404750 -32.633076
v 18.651514 -1.247566 -34.701675
v 21.024071 -1.404750 -36.071472
v 18.651516 -1.404749 -34.002869
v 18.651514 -1.404750 -34.701675
v 18.372036 -1.247566 -34.540318
v 18.372036 -1.247567 -34.164227
v 18.372036 -1.496038 -34.540318
v 18.372036 -1.496038 -34.164227
v 21.024071 -1.247567 -36.071472
v 21.024071 -1.247567 -32.633076
v 21.303549 -1.247567 -32.471718
v 21.303549 -1.247567 -36.232830
v 21.303549 -1.496038 -32.471718
v 21.303549 -1.496038 -36.232830
vt 0.049816 0.292072
vt 0.049815 0.828543
vt 0.950184 0.028762
vt 0.950184 0.950184
vt 0.109060 0.461784
vt 0.109061 0.686902
vt 0.102668 0.315683
vt 0.102668 0.814372
vt 0.050632 0.827058
vt 0.050632 0.295069
vt 0.109060 0.312687
vt 0.109061 0.815857
vt 0.048066 0.827058
vt 0.048066 0.295069
vt 0.049816 0.292072
vt 0.109060 0.312687
vt 0.109061 0.815857
vt 0.049815 0.828543
vt 0.102668 0.315683
vt 0.102668 0.814372
vt 0.050632 0.827058
vt 0.050632 0.295069
vt 0.109060 0.312687
vt 0.109061 0.815857
vt 0.048066 0.827058
vt 0.048066 0.295069
vn 1.000000 0.000000 -0.000003
vn 0.016783 0.999859 -0.000000
vn 0.016783 0.999859 -0.000000
vn 1.000000 0.000000 -0.000003
vn 0.000000 1.000000 -0.000000
vn 0.000000 1.000000 -0.000000
vn 0.000000 1.000000 0.000000
vn 0.000000 1.000000 0.000000
vn 0.000000 1.000000 0.000000
vn 0.000000 1.000000 0.000000
vn -1.000000 0.000000 0.000000
vn -1.000000 0.000000 0.000000
vn -1.000000 0.000000 0.000000
vn -1.000000 0.000000 0.000000
vn -1.000000 0.000000 0.000000
vn -1.000000 0.000000 0.000000
vn -1.000000 0.000000 0.000000
vn -1.000000 0.000000 0.000000
vn 0.000000 1.000000 -0.000000
vn 0.000000 1.000000 -0.000000
vn 0.000000 1.000000 -0.000000
vn 0.000000 1.000000 -0.000000
vn 1.000000 0.000000 0.000000
vn 1.000000 0.000000 0.000000
vn 1.000000 0.000000 0.000000
vn 1.000000 0.000000 0.000000
s 1
g Stone_Path:Group22665
usemtl Stone_Path:StingrayPBS1SG
f 1/1/1 5/5/2 6/6/3 3/2/4
f 6/6/3 5/5/2 2/3/5 4/4/6
s off
f 1/7/7 3/8/8 7/9/9 8/10/10
f 8/11/11 7/12/12 9/13/13 10/14/14
f 11/15/15 4/16/16 2/17/17 12/18/18
f 11/19/19 12/20/20 13/21/21 14/22/22
f 14/23/23 13/24/24 15/25/25 16/26/26
