# This file uses centimeters as units for non-parametric coordinates.

mtllib Stone_Path_5.mtl
g default
v 17.996979 -1.404750 -39.710274
v 15.188910 -1.404750 -39.710274
v 15.188910 -1.247567 -39.710274
v 17.996979 -1.247567 -39.710274
v 17.996979 -1.247567 -40.032990
v 15.188910 -1.247567 -40.032990
v 17.996979 -1.496038 -40.032990
v 15.188910 -1.496039 -40.032990
vt 0.049816 0.049815
vt 0.109060 0.049815
vt 0.109061 0.950184
vt 0.049815 0.950184
vt 0.102668 0.052812
vt 0.102668 0.948699
vt 0.050632 0.948699
vt 0.050632 0.052812
vt 0.109060 0.049815
vt 0.109061 0.950184
vt 0.048066 0.948699
vt 0.048066 0.052812
vn 0.000000 0.000000 1.000000
vn 0.000000 0.000000 1.000000
vn 0.000000 0.000000 1.000000
vn 0.000000 0.000000 1.000000
vn -0.000000 1.000000 0.000000
vn -0.000000 1.000000 0.000000
vn -0.000000 1.000000 0.000000
vn -0.000000 1.000000 0.000000
vn 0.000000 0.000000 -1.000000
vn 0.000000 0.000000 -1.000000
vn 0.000000 0.000000 -1.000000
vn 0.000000 0.000000 -1.000000
s off
g Stone_Path:Group22675
usemtl Stone_Path:StingrayPBS1SG
f 3/1/1 2/2/2 1/3/3 4/4/4
f 3/5/5 4/6/6 5/7/7 6/8/8
f 6/9/9 5/10/10 7/11/11 8/12/12
