# This file uses centimeters as units for non-parametric coordinates.

mtllib Stone_Path_4.mtl
g default
v 15.117668 -1.247567 -36.600296
v 17.857260 -1.404750 -36.600296
v 15.117667 -1.247566 -39.408363
v 17.857260 -1.404750 -39.408363
v 15.117668 -1.404749 -36.600296
v 15.117667 -1.404750 -39.408363
v 14.794954 -1.247566 -39.408363
v 14.794954 -1.247567 -36.600296
v 14.794954 -1.496038 -39.408363
v 14.794954 -1.496038 -36.600296
v 17.857260 -1.247567 -39.408363
v 17.857260 -1.247567 -36.600296
v 18.179974 -1.247567 -36.600296
v 18.179974 -1.247567 -39.408363
v 18.179974 -1.496038 -36.600296
v 18.179974 -1.496038 -39.408363
vt 0.049816 0.049815
vt 0.049815 0.950184
vt 0.950184 0.049815
vt 0.950184 0.950184
vt 0.109060 0.049815
vt 0.109061 0.950184
vt 0.102668 0.052812
vt 0.102668 0.948699
vt 0.050632 0.948699
vt 0.050632 0.052812
vt 0.109060 0.049815
vt 0.109061 0.950184
vt 0.048066 0.948699
vt 0.048066 0.052812
vt 0.049816 0.049815
vt 0.109060 0.049815
vt 0.109061 0.950184
vt 0.049815 0.950184
vt 0.102668 0.052812
vt 0.102668 0.948699
vt 0.050632 0.948699
vt 0.050632 0.052812
vt 0.109060 0.049815
vt 0.109061 0.950184
vt 0.048066 0.948699
vt 0.048066 0.052812
vn 1.000000 0.000000 -0.000000
vn 0.057280 0.998358 -0.000000
vn 0.057280 0.998358 -0.000000
vn 1.000000 0.000000 -0.000000
vn 0.000000 1.000000 -0.000000
vn 0.000000 1.000000 -0.000000
vn 0.000000 1.000000 0.000000
vn 0.000000 1.000000 0.000000
vn 0.000000 1.000000 0.000000
vn 0.000000 1.000000 0.000000
vn -1.000000 0.000000 0.000000
vn -1.000000 0.000000 0.000000
vn -1.000000 0.000000 0.000000
vn -1.000000 0.000000 0.000000
vn -1.000000 0.000000 0.000000
vn -1.000000 0.000000 0.000000
vn -1.000000 0.000000 0.000000
vn -1.000000 0.000000 0.000000
vn 0.000000 1.000000 -0.000000
vn 0.000000 1.000000 -0.000000
vn 0.000000 1.000000 -0.000000
vn 0.000000 1.000000 -0.000000
vn 1.000000 0.000000 0.000000
vn 1.000000 0.000000 0.000000
vn 1.000000 0.000000 0.000000
vn 1.000000 0.000000 0.000000
s 1
g Stone_Path:Stone_Path1:Group22665
usemtl Stone_Path:StingrayPBS1SG
f 1/1/1 5/5/2 6/6/3 3/2/4
f 6/6/3 5/5/2 2/3/5 4/4/6
s off
f 1/7/7 3/8/8 7/9/9 8/10/10
f 8/11/11 7/12/12 9/13/13 10/14/14
f 11/15/15 4/16/16 2/17/17 12/18/18
f 11/19/19 12/20/20 13/21/21 14/22/22
f 14/23/23 13/24/24 15/25/25 16/26/26
