# This file uses centimeters as units for non-parametric coordinates.

mtllib Plank_Structure_5.mtl
g default
v -0.000000 0.024293 3.948880
v 2.047512 0.024293 3.948880
v -0.000000 0.024293 -0.000002
v 2.047512 0.024293 -0.000002
vt 0.000000 0.000000
vt 1.000000 0.000000
vt 0.000000 1.000000
vt 1.000000 1.000000
vn 0.000000 1.000000 0.000000
vn 0.000000 1.000000 0.000000
vn 0.000000 1.000000 0.000000
vn 0.000000 1.000000 0.000000
s off
g pPlane1
usemtl initialShadingGroup
f 1/1/1 2/2/2 4/4/3 3/3/4
