# This file uses centimeters as units for non-parametric coordinates.

mtllib Plank_Structure_6_Rod_Only.mtl
g default
v 0.020285 -2.182754 -0.046769
v -0.042190 -2.182754 -0.046769
v -0.042190 -2.182754 0.039219
v 0.005471 -2.182754 0.046772
v 0.042193 -2.182754 -0.003773
v 0.020285 2.182753 -0.046769
v -0.042190 2.182753 -0.046769
v -0.042190 2.182753 0.039219
v 0.005471 2.182753 0.046772
v 0.042193 2.182753 -0.003773
vt 0.938758 0.943156
vt 0.984859 0.925139
vt 0.948708 0.923760
vt 0.971794 0.934773
vt 0.922011 0.910065
vt 0.958534 0.916791
vt 0.912077 0.923660
vt 0.967336 0.907863
vt 0.921921 0.943110
vt 0.982810 0.912769
vt 0.011506 0.000000
vt 0.011506 1.000000
vt 0.071753 1.000000
vt 0.312744 1.000000
vt 0.267558 1.000000
vt 0.177187 1.000000
vt 0.116939 1.000000
vt 0.071753 0.000000
vt 0.312744 0.000000
vt 0.267558 0.000000
vt 0.177187 0.000000
vt 0.116939 0.000000
vn 0.987690 0.000000 0.156423
vn 0.453995 0.000000 -0.891005
vn 0.453995 0.000000 -0.891005
vn 0.987690 0.000000 0.156423
vn -0.809012 0.000000 -0.587793
vn -0.809012 0.000000 -0.587793
vn -0.891010 0.000000 0.453984
vn -0.891010 0.000000 0.453984
vn 0.453965 0.000000 0.891019
vn 0.453965 0.000000 0.891019
vn 0.000000 -1.000000 0.000005
vn 0.000000 -1.000000 0.000006
vn 0.000000 -1.000000 0.000003
vn 0.000000 -1.000000 0.000004
vn 0.000000 -1.000000 0.000000
vn 0.000000 1.000000 0.000000
vn 0.000000 1.000000 0.000000
vn 0.000000 1.000000 0.000000
vn 0.000000 1.000000 0.000000
vn 0.000000 1.000000 0.000000
s 1
g Scaffolding_147 Modular_1
usemtl StingrayPBS1SG
f 5/18/1 1/22/2 6/17/3 10/13/4
f 1/22/2 2/21/5 7/16/6 6/17/3
f 2/21/5 3/20/7 8/15/8 7/16/6
f 3/20/7 4/19/9 9/14/10 8/15/8
f 4/11/9 5/18/1 10/13/4 9/12/10
s 2
f 1/1/11 5/9/12 4/7/13
f 2/3/14 1/1/11 4/7/13
f 3/5/15 2/3/14 4/7/13
s 3
f 10/10/16 6/2/17 9/8/18
f 6/2/17 7/4/19 9/8/18
f 7/4/19 8/6/20 9/8/18
