# This file uses centimeters as units for non-parametric coordinates.

mtllib Mushroom_4.mtl
g default
v -0.006327 4.628567 0.013839
v -0.007785 4.605872 -1.062049
v -1.028497 4.670306 -0.979041
v 0.993749 4.588621 -0.964581
v -1.212838 4.618041 0.050037
v 1.186615 4.589093 0.046912
v -0.930948 4.482368 1.098330
v 0.909526 4.468432 1.093207
v -0.009029 4.451874 1.175996
v -0.006135 4.398128 -2.578182
v -1.835205 4.399806 -2.037420
v 1.766284 4.306301 -1.990209
v -2.791980 4.323718 0.030621
v 2.769494 4.331093 0.028904
v -1.557281 4.126998 2.133378
v 1.532253 4.118310 2.129707
v -0.010755 3.965837 2.825636
v -0.010084 2.970429 -4.323741
v -2.631638 3.219117 -3.411562
v 2.577957 3.193813 -3.367734
v -4.014550 3.262381 -1.850246
v 4.009747 3.289049 -1.858840
v -4.203721 3.519655 1.173451
v 4.180699 3.516372 1.171991
v -4.618910 3.337068 -0.312870
v 4.618910 3.347068 -0.311603
v -3.346736 3.404506 2.748477
v 3.347599 3.440995 2.767973
v -1.576418 3.322958 3.973401
v 1.557635 3.328902 3.977993
v -2.603508 3.197839 3.723135
v 2.578815 3.190538 3.717949
v -0.010358 3.192096 4.321658
v -0.009763 2.430923 -4.097816
v -2.476116 2.653790 -3.230134
v 2.444418 2.703691 -3.215373
v -3.857684 2.670968 -1.809978
v 3.836866 2.654008 -1.809896
v -4.438873 2.713561 -0.315530
v 4.430884 2.680008 -0.314448
v -4.300605 2.837247 1.242006
v 4.280762 2.833299 1.241960
v -3.543331 2.827447 2.701693
v 3.539070 2.794624 2.712262
v -2.590240 2.664557 3.622251
v 2.564008 2.681826 3.616429
v -1.585847 2.610878 4.134694
v 1.567504 2.608512 4.135867
v -0.009878 2.561826 4.323741
v -1.963527 2.291702 0.551406
v 1.954012 2.261941 0.557961
v -1.567827 2.250939 1.195328
v 1.552345 2.262080 1.193849
v -1.104015 2.175293 1.614146
v 1.084796 2.215831 1.606461
v -0.669403 2.147063 1.842316
v 0.654582 2.171330 1.837651
v -0.006544 2.131882 1.908542
v 2.066318 2.282685 -0.102968
v -2.080101 2.308529 -0.107095
v 1.782339 2.406716 -0.804658
v -1.799830 2.418489 -0.808168
v 1.130694 2.720901 -1.621349
v -1.146128 2.695900 -1.628883
v -0.006233 2.756918 -2.003828
v 0.357826 1.790570 1.184744
v -0.367768 1.790322 1.184859
v 0.649883 1.702361 0.960724
v -0.659936 1.700935 0.961534
v 0.893542 1.773533 0.680584
v -0.903239 1.772849 0.680113
v -0.004999 1.797058 1.223022
v 1.008898 1.692214 0.389416
v -1.018586 1.692216 0.387515
v 1.047965 1.768199 0.028563
v -1.057769 1.769216 0.025515
v 0.901006 1.897776 -0.380792
v -0.909576 1.901408 -0.382815
v 0.526057 2.030605 -0.832077
v -0.534878 2.034294 -0.832044
v 0.704307 1.294159 -0.001785
v -0.705396 1.300270 -0.003350
v 0.624350 1.342310 -0.298984
v -0.623948 1.348310 -0.297548
v 0.409155 1.337226 -0.538430
v -0.412409 1.341557 -0.532312
v -0.004744 2.079219 -1.010846
v -0.003831 1.350803 -0.669638
v -0.642228 1.218264 0.266607
v 0.638486 1.214006 0.269300
v -0.496448 1.125333 0.481288
v 0.490645 1.123319 0.483272
v -0.279233 1.147691 0.653571
v 0.272052 1.147336 0.653965
v -0.003756 1.152855 0.684667
v -0.550290 0.798798 -0.210680
v 0.560583 0.795422 -0.223886
v -0.390800 0.806903 -0.411811
v 0.397922 0.801916 -0.439782
v -0.000145 0.799302 -0.533550
v 0.613329 0.774019 0.025624
v -0.606318 0.776312 0.025682
v 0.552314 0.751041 0.243258
v -0.551137 0.752567 0.238574
v 0.401007 0.719134 0.434247
v -0.405367 0.719834 0.431067
v 0.215610 0.723053 0.513026
v -0.222051 0.723312 0.511695
v -0.003443 0.726894 0.512948
v 0.066442 0.245397 -0.624050
v -0.374671 0.204706 -0.506260
v 0.457578 0.215172 -0.441526
v -0.596492 0.156781 -0.279261
v 0.636538 0.174667 -0.193811
v -0.647393 0.135696 -0.021193
v 0.666028 0.153324 0.052237
v -0.590015 0.137190 0.272442
v 0.581970 0.152279 0.315206
v -0.441628 0.141449 0.476952
v 0.408515 0.148002 0.508428
v -0.218808 0.154673 0.614601
v 0.174302 0.151997 0.629402
v -0.023790 0.156271 0.643929
v -0.004464 -1.566259 0.878332
v 0.301106 -1.578838 0.811487
v -0.320220 -1.567144 0.806274
v 0.591806 -1.591477 0.596756
v -0.635077 -1.591944 0.572546
v 0.755823 -1.603781 0.318538
v -0.823112 -1.632410 0.243301
v 0.805382 -1.604053 -0.004611
v -0.860017 -1.649381 -0.118725
v 0.730042 -1.547497 -0.348215
v -0.742274 -1.586179 -0.437087
v 0.482813 -1.496199 -0.665731
v -0.472396 -1.514663 -0.692841
v 0.001910 -1.444367 -0.865251
v -0.004951 -3.466280 1.261193
v 0.548495 -3.461322 1.101955
v -0.549119 -3.479073 1.116587
v 0.887361 -3.457799 0.745643
v -0.882473 -3.477257 0.756463
v 1.082254 -3.481939 0.296880
v -1.088123 -3.492810 0.279508
v 1.100902 -3.480534 -0.124708
v -1.118995 -3.486749 -0.175931
v 0.913944 -3.503246 -0.617846
v -0.940196 -3.510409 -0.687843
v 0.505498 -3.524807 -0.991033
v -0.527575 -3.533013 -1.041247
v -0.009013 -3.490732 -1.153853
v 1.045105 -4.654799 -0.085089
v -1.043393 -4.656135 -0.082296
v 0.836917 -4.606341 -0.577250
v -0.845579 -4.606899 -0.575414
v 0.418505 -4.546365 -0.928641
v -0.429719 -4.546971 -0.928936
v -0.005588 -4.525623 -1.024386
v 1.026744 -4.665334 0.318717
v -1.016554 -4.670306 0.318756
v 0.848804 -4.601857 0.766677
v -0.839444 -4.613434 0.767835
v 0.489366 -4.546994 1.081341
v -0.493202 -4.557727 1.084403
v -0.005589 -4.505758 1.215048
vt 0.115117 0.146188
vt 0.146910 0.145930
vt 0.147340 0.174571
vt 0.120860 0.172736
vt 0.178344 0.145387
vt 0.173496 0.172062
vt 0.121448 0.117833
vt 0.146305 0.114519
vt 0.171173 0.117181
vt 0.100747 0.201468
vt 0.147893 0.214056
vt 0.194007 0.200179
vt 0.073821 0.149205
vt 0.219403 0.147129
vt 0.103423 0.090617
vt 0.188280 0.089399
vt 0.145608 0.070382
vt 0.148408 0.264850
vt 0.077479 0.247139
vt 0.218908 0.244830
vt 0.039083 0.205376
vt 0.255578 0.201859
vt 0.032984 0.122459
vt 0.053679 0.077846
vt 0.024633 0.163773
vt 0.237655 0.075257
vt 0.259772 0.119160
vt 0.269266 0.160133
vt 0.101530 0.041240
vt 0.145046 0.029564
vt 0.073765 0.050139
vt 0.188907 0.039983
vt 0.217038 0.047911
vt 0.134518 0.285238
vt 0.081017 0.300282
vt 0.188411 0.299114
vt 0.046093 0.322250
vt 0.224125 0.320041
vt 0.023369 0.346667
vt 0.247798 0.343892
vt 0.010024 0.377058
vt 0.006743 0.411956
vt 0.261312 0.374010
vt 0.266058 0.408604
vt 0.011710 0.440402
vt 0.261865 0.437042
vt 0.021657 0.463095
vt 0.045239 0.489805
vt 0.252850 0.460003
vt 0.135113 0.326792
vt 0.102515 0.334853
vt 0.167788 0.334097
vt 0.077979 0.353005
vt 0.192670 0.351610
vt 0.063317 0.369414
vt 0.207742 0.367663
vt 0.057400 0.387473
vt 0.214660 0.385570
vt 0.056092 0.408872
vt 0.216557 0.406978
vt 0.059151 0.426451
vt 0.214104 0.424608
vt 0.064237 0.439541
vt 0.209510 0.437783
vt 0.076443 0.454006
vt 0.083744 0.395693
vt 0.080117 0.406507
vt 0.088511 0.383658
vt 0.192426 0.405284
vt 0.188444 0.394562
vt 0.183196 0.382675
vt 0.081123 0.419012
vt 0.191814 0.417815
vt 0.082278 0.431387
vt 0.191148 0.430236
vt 0.088954 0.441172
vt 0.172896 0.370615
vt 0.098368 0.371346
vt 0.155154 0.358513
vt 0.115703 0.358815
vt 0.135364 0.353841
vt 0.105428 0.428050
vt 0.171941 0.418978
vt 0.101090 0.419393
vt 0.172151 0.408851
vt 0.172242 0.399125
vt 0.100091 0.399660
vt 0.100519 0.409316
vt 0.169106 0.389254
vt 0.102851 0.389776
vt 0.161493 0.380647
vt 0.110096 0.381055
vt 0.150925 0.375077
vt 0.120324 0.375290
vt 0.135549 0.371824
vt 0.447751 0.011131
vt 0.436893 0.011858
vt 0.457267 0.010360
vt 0.378938 0.012453
vt 0.368632 0.011748
vt 0.359416 0.011021
vt 0.425301 0.012779
vt 0.390000 0.013142
vt 0.407690 0.013689
vt 0.349332 0.010162
vt 0.467501 0.009505
vt 0.341156 0.008316
vt 0.475761 0.007677
vt 0.332432 0.005607
vt 0.379255 0.030100
vt 0.392179 0.029760
vt 0.368599 0.029343
vt 0.440574 0.028484
vt 0.428211 0.028616
vt 0.450528 0.027821
vt 0.410727 0.029030
vt 0.461476 0.026236
vt 0.356623 0.027541
vt 0.471757 0.024580
vt 0.346571 0.025680
vt 0.482137 0.022389
vt 0.336256 0.023233
vt 0.328528 0.021211
vt 0.391013 0.076127
vt 0.409045 0.074688
vt 0.427695 0.075249
vt 0.377728 0.077262
vt 0.442069 0.075460
vt 0.365700 0.077831
vt 0.454588 0.075621
vt 0.353165 0.075769
vt 0.465989 0.074105
vt 0.340245 0.072638
vt 0.477176 0.071995
vt 0.326804 0.069352
vt 0.489663 0.069229
vt 0.315664 0.066644
vt 0.497979 0.120449
vt 0.301508 0.117243
vt 0.318056 0.121268
vt 0.483443 0.123026
vt 0.332589 0.123663
vt 0.469133 0.125798
vt 0.347862 0.126147
vt 0.456709 0.127193
vt 0.361334 0.127430
vt 0.441174 0.129030
vt 0.377289 0.129282
vt 0.424833 0.130429
vt 0.393280 0.130597
vt 0.408929 0.129622
vt 0.295613 0.145189
vt 0.505031 0.149149
vt 0.311800 0.149932
vt 0.489610 0.153648
vt 0.327057 0.154123
vt 0.473751 0.157623
vt 0.343093 0.157694
vt 0.460133 0.158893
vt 0.356742 0.158707
vt 0.441986 0.159014
vt 0.374943 0.158666
vt 0.423412 0.158028
vt 0.393685 0.157947
vt 0.408603 0.157724
vt 0.514970 0.116585
vt 0.521410 0.144329
vt 0.500364 0.066308
vt 0.489893 0.020319
vt 0.115422 0.423265
vt 0.157790 0.423431
vt 0.484556 0.005059
vt 0.161101 0.416687
vt 0.167954 0.427814
vt 0.111864 0.416667
vt 0.162021 0.410300
vt 0.110745 0.410367
vt 0.161746 0.402810
vt 0.110820 0.402956
vt 0.135736 0.384030
vt 0.123894 0.386882
vt 0.147549 0.386600
vt 0.117517 0.391112
vt 0.154386 0.390782
vt 0.113006 0.396759
vt 0.159311 0.396523
vt 0.184883 0.440291
vt 0.197846 0.452633
vt 0.144800 0.013720
vt 0.230141 0.487436
vt 0.193781 0.021009
vt 0.225570 0.038033
vt 0.096127 0.022579
vt 0.064563 0.040143
vt 0.254305 0.068712
vt 0.038240 0.072605
vt 0.277111 0.114123
vt 0.285819 0.163740
vt 0.015605 0.117918
vt 0.009255 0.167575
vt 0.268427 0.211714
vt 0.027322 0.215028
vt 0.224785 0.255529
vt 0.070983 0.259572
vt 0.148767 0.287900
vn -0.141768 0.986617 0.080554
vn 0.018150 0.997456 0.068938
vn 0.029333 0.993217 -0.112512
vn -0.096742 0.992058 -0.080385
vn 0.137906 0.988669 0.059290
vn 0.117833 0.987980 -0.100057
vn -0.094768 0.971288 0.218216
vn 0.006472 0.971326 0.237663
vn 0.095166 0.972376 0.213138
vn -0.280928 0.878348 -0.386761
vn 0.017433 0.853901 -0.520144
vn 0.272011 0.881202 -0.386644
vn -0.363469 0.931600 -0.003422
vn 0.343740 0.938949 -0.014777
vn -0.182225 0.934153 0.306841
vn 0.177555 0.936678 0.301843
vn 0.000836 0.920669 0.390344
vn 0.008009 0.562212 -0.826955
vn -0.414768 0.639891 -0.646921
vn 0.405462 0.655212 -0.637415
vn -0.635576 0.687322 -0.351612
vn 0.606627 0.705985 -0.365499
vn -0.540433 0.819003 0.192789
vn -0.429581 0.819455 0.379412
vn -0.704497 0.701217 -0.109446
vn 0.429271 0.819985 0.378616
vn 0.543724 0.817083 0.191677
vn 0.712120 0.694699 -0.101382
vn -0.163428 0.786045 0.596175
vn -0.000404 0.737368 0.675491
vn -0.362927 0.732667 0.575745
vn 0.158349 0.787140 0.596101
vn 0.354394 0.727863 0.587044
vn 0.004464 -0.955750 -0.294148
vn -0.196149 -0.927381 -0.318575
vn 0.192205 -0.927568 -0.320431
vn -0.330574 -0.906938 -0.261123
vn 0.322772 -0.903982 -0.280418
vn -0.482180 -0.875280 -0.037250
vn 0.491875 -0.869755 -0.039824
vn -0.525665 -0.827416 0.197632
vn -0.489836 -0.830735 0.264462
vn 0.537628 -0.817196 0.207719
vn 0.481093 -0.831037 0.279155
vn -0.340034 -0.877201 0.338962
vn 0.330112 -0.877858 0.346974
vn -0.161946 -0.849800 0.501611
vn 0.004019 -0.848963 0.528436
vn 0.173335 -0.854196 0.490208
vn 0.010054 -0.999947 -0.002209
vn -0.030844 -0.996628 -0.076038
vn 0.034708 -0.995351 -0.089845
vn -0.098890 -0.982534 -0.157629
vn 0.087297 -0.980015 -0.178745
vn -0.201318 -0.978962 -0.033236
vn 0.197155 -0.979775 -0.034216
vn -0.240127 -0.966902 0.086256
vn 0.235712 -0.967340 0.093238
vn -0.250282 -0.962178 0.107574
vn 0.230154 -0.965512 0.121724
vn -0.207259 -0.968338 0.139161
vn 0.197497 -0.969522 0.144988
vn -0.087265 -0.976563 0.196746
vn 0.101626 -0.976990 0.187519
vn 0.005528 -0.978385 0.206720
vn -0.566059 -0.810148 0.152438
vn -0.501413 -0.803255 0.321507
vn -0.534726 -0.823417 -0.189878
vn 0.489888 -0.798212 0.350526
vn 0.555514 -0.815063 0.164549
vn 0.526922 -0.827332 -0.194616
vn -0.411407 -0.802220 0.432652
vn 0.417220 -0.787681 0.453307
vn -0.132533 -0.830103 0.541631
vn 0.154803 -0.820550 0.550213
vn 0.007738 -0.812712 0.582614
vn 0.409255 -0.781243 -0.471349
vn -0.412337 -0.786161 -0.460357
vn 0.254790 -0.751871 -0.608089
vn -0.250990 -0.760995 -0.598240
vn 0.005534 -0.754608 -0.656152
vn -0.000624 -0.567449 0.823408
vn 0.309979 -0.569435 0.761352
vn -0.312377 -0.572283 0.758230
vn 0.670790 -0.486812 0.559513
vn 0.840822 -0.473193 0.262883
vn -0.838919 -0.483305 0.250264
vn -0.674529 -0.492737 0.549746
vn 0.888909 -0.427956 -0.163383
vn -0.879071 -0.443196 -0.175534
vn 0.775281 -0.356188 -0.521602
vn -0.763811 -0.374161 -0.525924
vn 0.466810 -0.341699 -0.815678
vn -0.471363 -0.354867 -0.807395
vn -0.010764 -0.361308 -0.932385
vn 0.999334 -0.032777 0.016062
vn 0.901144 -0.037567 -0.431889
vn 0.902912 -0.033930 0.428484
vn -0.887822 -0.041249 -0.458335
vn -0.998811 -0.046420 -0.014876
vn -0.921487 -0.048441 0.385378
vn 0.526324 -0.043350 -0.849178
vn -0.517674 -0.042587 -0.854517
vn -0.013666 -0.044030 -0.998937
vn -0.677572 -0.042251 0.734241
vn 0.649883 -0.032458 0.759341
vn -0.291259 -0.063361 0.954544
vn 0.268528 -0.056689 0.961602
vn -0.009968 -0.066323 0.997748
vn -0.857095 0.116430 -0.501829
vn -0.484043 0.129586 -0.865396
vn -0.993087 0.110251 -0.040281
vn 0.911702 0.087866 -0.401347
vn 0.589888 0.109088 -0.800083
vn 0.995690 0.083741 0.039875
vn 0.056696 0.133314 -0.989451
vn 0.899930 0.093860 0.425812
vn -0.928407 0.109351 0.355110
vn 0.662877 0.111112 0.740438
vn -0.703852 0.115618 0.700875
vn 0.343321 0.132579 0.929814
vn -0.383061 0.131732 0.914282
vn -0.019977 0.143984 0.989378
vn -0.483621 0.145845 -0.863041
vn 0.039395 0.145986 -0.988502
vn 0.561569 0.130425 -0.817086
vn -0.830242 0.140811 -0.539324
vn 0.873535 0.124087 -0.470679
vn -0.984982 0.134546 -0.108202
vn 0.989696 0.128533 -0.063095
vn -0.946912 0.135118 0.291721
vn 0.934950 0.135296 0.327968
vn -0.766107 0.146978 0.625682
vn 0.746247 0.149261 0.648719
vn -0.442691 0.163928 0.881562
vn 0.427967 0.164117 0.888769
vn -0.004393 0.170228 0.985395
vn 0.480801 0.098040 0.871331
vn 0.005482 0.098737 0.995099
vn -0.482816 0.096763 0.870359
vn 0.809034 0.091458 0.580603
vn -0.815009 0.085470 0.573110
vn 0.964996 0.077453 0.250566
vn -0.965114 0.066295 0.253298
vn 0.985681 0.068914 -0.153897
vn -0.986707 0.051271 -0.154212
vn 0.837180 0.056957 -0.543954
vn -0.819467 0.040943 -0.571662
vn 0.517806 0.057113 -0.853589
vn -0.468408 0.048898 -0.882158
vn 0.031393 0.073315 -0.996815
vn 0.007644 -0.041510 0.999109
vn 0.495120 -0.035007 0.868119
vn -0.500566 -0.041610 0.864698
vn 0.833163 -0.030790 0.552170
vn -0.840171 -0.038389 0.540961
vn 0.972724 -0.038179 0.228800
vn -0.969578 -0.047858 0.240059
vn 0.981921 -0.058447 -0.180043
vn -0.985442 -0.082441 -0.148689
vn 0.822058 -0.078456 -0.563973
vn -0.826608 -0.122208 -0.549349
vn 0.487607 -0.095305 -0.867846
vn -0.457877 -0.136502 -0.878474
vn 0.028655 -0.115529 -0.992891
s 1
g Group5168 Floor:group19
usemtl Mushroom:StingrayPBS1SG
f 5/1/1 1/2/2 2/3/3 3/4/4
f 6/5/5 4/6/6 2/3/3 1/2/2
f 5/1/1 7/7/7 9/8/8 1/2/2
f 6/5/5 1/2/2 9/8/8 8/9/9
f 11/10/10 3/4/4 2/3/3 10/11/11
f 12/12/12 10/11/11 2/3/3 4/6/6
f 11/10/10 13/13/13 5/1/1 3/4/4
f 12/12/12 4/6/6 6/5/5 14/14/14
f 13/13/13 15/15/15 7/7/7 5/1/1
f 14/14/14 6/5/5 8/9/9 16/16/16
f 17/17/17 9/8/8 7/7/7 15/15/15
f 17/17/17 16/16/16 8/9/9 9/8/8
f 18/18/18 19/19/19 11/10/10 10/11/11
f 18/18/18 10/11/11 12/12/12 20/20/20
f 13/13/13 11/10/10 19/19/19 21/21/21
f 14/14/14 22/22/22 20/20/20 12/12/12
f 15/15/15 13/13/13 23/23/23 27/24/24
f 21/21/21 25/25/25 23/23/23 13/13/13
f 16/16/16 28/26/26 24/27/27 14/14/14
f 22/22/22 14/14/14 24/27/27 26/28/28
f 15/15/15 29/29/29 33/30/30 17/17/17
f 15/15/15 27/24/24 31/31/31 29/29/29
f 16/16/16 17/17/17 33/30/30 30/32/32
f 16/16/16 30/32/32 32/33/33 28/26/26
f 34/205/34 35/204/35 19/19/19 18/18/18
f 34/205/34 18/18/18 20/20/20 36/203/36
f 37/202/37 21/21/21 19/19/19 35/204/35
f 38/201/38 36/203/36 20/20/20 22/22/22
f 25/25/25 21/21/21 37/202/37 39/200/39
f 26/28/28 40/198/40 38/201/38 22/22/22
f 39/200/39 41/199/41 23/23/23 25/25/25
f 27/24/24 23/23/23 41/199/41 43/196/42
f 40/198/40 26/28/28 24/27/27 42/197/43
f 28/26/26 44/195/44 42/197/43 24/27/27
f 43/196/42 45/194/45 31/31/31 27/24/24
f 44/195/44 28/26/26 32/33/33 46/192/46
f 45/194/45 47/193/47 29/29/29 31/31/31
f 29/29/29 47/193/47 49/189/48 33/30/30
f 46/192/46 32/33/33 30/32/32 48/191/49
f 30/32/32 33/30/30 49/189/48 48/191/49
f 35/35/35 34/34/34 65/50/50 64/51/51
f 36/36/36 63/52/52 65/50/50 34/34/34
f 37/37/37 35/35/35 64/51/51 62/53/53
f 38/38/38 61/54/54 63/52/52 36/36/36
f 39/39/39 37/37/37 62/53/53 60/55/55
f 40/40/40 59/56/56 61/54/54 38/38/38
f 41/41/41 39/39/39 60/55/55 50/57/57
f 42/43/43 51/58/58 59/56/56 40/40/40
f 43/42/42 41/41/41 50/57/57 52/59/59
f 44/44/44 53/60/60 51/58/58 42/43/43
f 43/42/42 52/59/59 54/61/61 45/45/45
f 44/44/44 46/46/46 55/62/62 53/60/60
f 45/45/45 54/61/61 56/63/63 47/47/47
f 46/46/46 48/49/49 57/64/64 55/62/62
f 47/47/47 56/63/63 58/65/65 49/48/48
f 48/49/49 49/190/48 58/188/65 57/64/64
f 50/57/57 74/66/66 71/67/67 52/59/59
f 60/55/55 76/68/68 74/66/66 50/57/57
f 51/58/58 53/60/60 70/69/69 73/70/70
f 59/56/56 51/58/58 73/70/70 75/71/71
f 54/61/61 52/59/59 71/67/67 69/72/72
f 55/62/62 68/73/73 70/69/69 53/60/60
f 69/72/72 67/74/74 56/63/63 54/61/61
f 68/73/73 55/62/62 57/64/64 66/75/75
f 56/63/63 67/74/74 72/76/76 58/65/65
f 57/64/64 58/188/65 72/187/76 66/75/75
f 59/56/56 75/71/71 77/77/77 61/54/54
f 60/55/55 62/53/53 78/78/78 76/68/68
f 63/52/52 61/54/54 77/77/77 79/79/79
f 64/51/51 80/80/80 78/78/78 62/53/53
f 63/52/52 79/79/79 87/81/81 65/50/50
f 64/51/51 65/50/50 87/81/81 80/80/80
f 66/75/75 72/187/76 95/174/82 94/83/83
f 67/74/74 93/84/84 95/82/82 72/76/76
f 70/69/69 92/85/85 90/86/86 73/70/70
f 71/67/67 74/66/66 89/87/87 91/88/88
f 73/70/70 90/86/86 81/89/89 75/71/71
f 74/66/66 76/68/68 82/90/90 89/87/87
f 75/71/71 81/89/89 83/91/91 77/77/77
f 76/68/68 78/78/78 84/92/92 82/90/90
f 79/79/79 77/77/77 83/91/91 85/93/93
f 80/80/80 86/94/94 84/92/92 78/78/78
f 87/81/81 79/79/79 85/93/93 88/95/95
f 87/81/81 88/95/95 86/94/94 80/80/80
f 83/91/91 81/89/89 101/186/96 97/184/97
f 81/89/89 90/86/86 103/178/98 101/186/96
f 84/92/92 96/183/99 102/185/100 82/90/90
f 82/90/90 102/185/100 104/179/101 89/87/87
f 85/93/93 83/91/91 97/184/97 99/182/102
f 86/94/94 98/181/103 96/183/99 84/92/92
f 88/95/95 85/93/93 99/182/102 100/180/104
f 88/95/95 100/180/104 98/181/103 86/94/94
f 89/87/87 104/179/101 106/177/105 91/88/88
f 90/86/86 92/85/85 105/176/106 103/178/98
f 93/84/84 91/88/88 106/177/105 108/175/107
f 94/83/83 107/173/108 105/176/106 92/85/85
f 95/82/82 93/84/84 108/175/107 109/170/109
f 95/174/82 109/171/109 107/173/108 94/83/83
f 113/110/110 96/99/99 98/103/103 111/111/111
f 96/99/99 113/110/110 115/112/112 102/100/100
f 114/113/113 112/114/114 99/102/102 97/97/97
f 97/97/97 101/96/96 116/115/115 114/113/113
f 98/103/103 100/104/104 110/116/116 111/111/111
f 99/102/102 112/114/114 110/116/116 100/104/104
f 101/96/96 103/98/98 118/117/117 116/115/115
f 102/100/100 115/112/112 117/118/118 104/101/101
f 103/98/98 105/106/106 120/119/119 118/117/117
f 104/101/101 117/118/118 119/120/120 106/105/105
f 122/121/121 120/119/119 105/106/106 107/108/108
f 121/122/122 108/107/107 106/105/105 119/120/120
f 107/108/108 109/172/109 123/169/123 122/121/121
f 108/107/107 121/122/122 123/123/123 109/109/109
f 136/124/124 111/111/111 110/116/116 137/125/125
f 135/126/126 137/125/125 110/116/116 112/114/114
f 111/111/111 136/124/124 134/127/127 113/110/110
f 112/114/114 114/113/113 133/128/128 135/126/126
f 132/129/129 115/112/112 113/110/110 134/127/127
f 131/130/130 133/128/128 114/113/113 116/115/115
f 132/129/129 130/131/131 117/118/118 115/112/112
f 131/130/130 116/115/115 118/117/117 129/132/132
f 130/131/131 128/133/133 119/120/120 117/118/118
f 129/132/132 118/117/117 120/119/119 127/134/134
f 128/133/133 126/135/135 121/122/122 119/120/120
f 127/134/134 120/119/119 122/121/121 125/136/136
f 126/135/135 124/137/137 123/123/123 121/122/122
f 125/136/136 122/121/121 123/169/123 124/168/137
f 139/138/138 125/136/136 124/168/137 138/166/139
f 140/140/140 138/139/139 124/137/137 126/135/135
f 125/136/136 139/138/138 141/141/141 127/134/134
f 126/135/135 128/133/133 142/142/142 140/140/140
f 143/143/143 129/132/132 127/134/134 141/141/141
f 144/144/144 142/142/142 128/133/133 130/131/131
f 129/132/132 143/143/143 145/145/145 131/130/130
f 130/131/131 132/129/129 146/146/146 144/144/144
f 147/147/147 133/128/128 131/130/130 145/145/145
f 148/148/148 146/146/146 132/129/129 134/127/127
f 149/149/149 135/126/126 133/128/128 147/147/147
f 150/150/150 148/148/148 134/127/127 136/124/124
f 137/125/125 135/126/126 149/149/149 151/151/151
f 137/125/125 151/151/151 150/150/150 136/124/124
f 139/138/138 138/166/139 165/167/152 163/153/153
f 140/140/140 164/154/154 165/152/152 138/139/139
f 161/155/155 141/141/141 139/138/138 163/153/153
f 162/156/156 164/154/154 140/140/140 142/142/142
f 159/157/157 143/143/143 141/141/141 161/155/155
f 160/158/158 162/156/156 142/142/142 144/144/144
f 159/157/157 152/159/159 145/145/145 143/143/143
f 160/158/158 144/144/144 146/146/146 153/160/160
f 152/159/159 154/161/161 147/147/147 145/145/145
f 153/160/160 146/146/146 148/148/148 155/162/162
f 154/161/161 156/163/163 149/149/149 147/147/147
f 155/162/162 148/148/148 150/150/150 157/164/164
f 151/151/151 149/149/149 156/163/163 158/165/165
f 151/151/151 158/165/165 157/164/164 150/150/150
f 70/69/69 68/73/73 94/83/83 92/85/85
f 66/75/75 94/83/83 68/73/73
f 71/67/67 91/88/88 93/84/84 69/72/72
f 69/72/72 93/84/84 67/74/74
