# This file uses centimeters as units for non-parametric coordinates.

mtllib Ground.mtl
g default
v -7.049375 0.345804 12.055166
v -4.666665 0.396873 14.828578
v 0.065557 -0.054609 14.862102
v -2.015328 0.990546 10.323177
v -2.161350 0.709776 3.597820
v -7.180233 -0.345147 3.053240
v -1.620517 0.653171 -4.198106
v -6.924231 0.467632 -4.782506
v -0.530733 0.477847 -12.544253
v -6.493975 0.459908 -12.262897
v -4.474400 1.278051 -19.177464
v 1.054314 0.758346 -20.525669
v 0.575321 -1.250153 -22.206005
v -6.018744 -1.579975 -21.739681
v -7.624403 -2.289982 -20.833157
v -7.690308 -1.153062 -18.369663
v -7.979852 -1.020795 -11.956133
v -7.715537 -0.986132 -5.067310
v 6.596645 -1.004117 -20.599632
v 5.983535 -2.738245 -22.299145
v 13.335303 -2.869287 -22.232014
v 14.073671 -1.742225 -20.008274
v 7.062460 -1.138766 -12.033796
v 15.041136 -1.043662 -12.193027
v 23.423767 0.571909 -12.589244
v 23.371731 -1.271425 -19.168774
v 22.670172 -2.952758 -21.418198
v 6.736774 0.186288 -3.481754
v 14.936554 0.340206 -4.275179
v 23.232525 0.638263 -4.595992
v 28.910902 -2.441715 -4.494365
v 28.780350 -3.058277 -12.840168
v 28.890324 -4.862323 -17.416012
v 27.089233 -5.487741 -21.023972
v 6.504402 0.696990 4.596737
v 13.952651 0.108596 4.277055
v 23.119825 0.375922 4.071270
v 29.122017 -2.413666 3.915566
v 5.709137 0.550004 11.219840
v 14.046656 0.530631 11.654731
v 23.118774 0.334210 11.812967
v 29.293287 -3.169897 11.444994
v 21.797630 -1.400496 14.732842
v 28.527372 -4.306414 14.040181
v 13.515549 -0.386703 15.018384
v 5.777371 0.116090 14.807260
v -7.694322 -1.513720 2.816897
v -7.749953 -1.083741 12.520045
v -6.501414 -1.142631 14.888743
vt 0.309309 0.857558
vt 0.392450 0.899464
vt 0.362379 0.955372
vt 0.310996 0.942205
vt 0.355115 0.985539
vt 0.311829 0.964144
vt 0.515937 0.899563
vt 0.526431 0.952186
vt 0.530824 0.980744
vt 0.308367 0.758619
vt 0.374360 0.761900
vt 0.496604 0.748087
vt 0.668880 0.951996
vt 0.658591 0.889007
vt 0.645598 0.740459
vt 0.673298 0.983483
vt 0.811098 0.868187
vt 0.804760 0.943697
vt 0.801680 0.726792
vt 0.797494 0.986943
vt 0.957667 0.841483
vt 0.931974 0.940458
vt 0.958219 0.734918
vt 0.912866 0.980439
vt 0.973379 0.949004
vt 0.984801 0.837976
vt 0.955430 0.971959
vt 0.986075 0.736096
vt 0.948887 0.599559
vt 0.987466 0.606895
vt 0.806286 0.586355
vt 0.937330 0.435331
vt 0.975987 0.440572
vt 0.817077 0.442787
vt 0.660689 0.595600
vt 0.667269 0.446991
vt 0.819057 0.330082
vt 0.901503 0.320886
vt 0.664235 0.330445
vt 0.966247 0.350744
vt 0.501752 0.612676
vt 0.504499 0.448346
vt 0.507166 0.327013
vt 0.364175 0.613662
vt 0.358949 0.448594
vt 0.366710 0.321193
vt 0.302437 0.618792
vt 0.306026 0.465051
vt 0.319435 0.330787
vn 0.003453 0.991159 0.132637
vn 0.003453 0.991159 0.132637
vn 0.003453 0.991159 0.132637
vn 0.003453 0.991159 0.132637
vn -0.637660 0.624309 0.451251
vn -0.637660 0.624309 0.451251
vn -0.637660 0.624309 0.451251
vn -0.637660 0.624309 0.451251
vn -0.173050 0.983221 -0.057702
vn -0.173050 0.983221 -0.057702
vn -0.173050 0.983221 -0.057702
vn -0.173050 0.983221 -0.057702
vn -0.906405 0.421856 -0.021635
vn -0.906405 0.421856 -0.021635
vn -0.906405 0.421856 -0.021635
vn -0.906405 0.421856 -0.021635
vn 0.008687 0.984202 0.176837
vn 0.008687 0.984202 0.176837
vn 0.008687 0.984202 0.176837
vn 0.008687 0.984202 0.176837
vn 0.028644 0.999553 -0.008625
vn 0.028644 0.999552 -0.008625
vn 0.028644 0.999553 -0.008625
vn 0.028644 0.999553 -0.008625
vn -0.123697 0.991445 0.041655
vn -0.123697 0.991445 0.041655
vn -0.123697 0.991445 0.041655
vn -0.123697 0.991445 0.041655
vn 0.031589 0.998917 -0.034160
vn 0.031589 0.998917 -0.034160
vn 0.031589 0.998917 -0.034160
vn 0.031589 0.998917 -0.034160
vn -0.896866 0.441637 0.024261
vn -0.896866 0.441637 0.024261
vn -0.896866 0.441637 0.024261
vn -0.896866 0.441637 0.024261
vn -0.017699 0.999755 -0.013263
vn -0.017699 0.999756 -0.013263
vn -0.017699 0.999756 -0.013263
vn -0.017699 0.999755 -0.013263
vn 0.134920 0.987906 -0.076414
vn 0.134920 0.987906 -0.076414
vn 0.134920 0.987906 -0.076414
vn 0.134920 0.987906 -0.076414
vn -0.790020 0.612984 -0.010932
vn -0.790020 0.612984 -0.010932
vn -0.790020 0.612984 -0.010932
vn -0.790020 0.612984 -0.010932
vn 0.055745 0.994661 0.086850
vn 0.055745 0.994661 0.086850
vn 0.055745 0.994661 0.086850
vn 0.055745 0.994661 0.086850
vn 0.247647 0.967981 0.041036
vn 0.247647 0.967981 0.041036
vn 0.247647 0.967981 0.041036
vn 0.247647 0.967981 0.041036
vn -0.648060 0.758057 -0.073267
vn -0.648060 0.758057 -0.073267
vn -0.648060 0.758057 -0.073267
vn -0.648060 0.758057 -0.073267
vn -0.098580 0.676902 -0.729442
vn -0.098580 0.676902 -0.729442
vn -0.098580 0.676902 -0.729442
vn -0.098580 0.676902 -0.729442
vn -0.595975 0.704752 -0.384887
vn -0.595975 0.704752 -0.384887
vn -0.595975 0.704752 -0.384887
vn -0.595975 0.704752 -0.384887
vn 0.175787 0.631038 -0.755572
vn 0.175787 0.631038 -0.755572
vn 0.175787 0.631038 -0.755572
vn 0.175787 0.631038 -0.755572
vn 0.073336 0.793589 -0.604019
vn 0.073336 0.793588 -0.604019
vn 0.073336 0.793589 -0.604019
vn 0.073336 0.793589 -0.604019
vn 0.042600 0.998366 -0.038096
vn 0.042600 0.998366 -0.038096
vn 0.042600 0.998366 -0.038096
vn 0.042600 0.998366 -0.038096
vn 0.030272 0.842113 -0.538450
vn 0.030272 0.842113 -0.538450
vn 0.030272 0.842113 -0.538450
vn 0.030272 0.842113 -0.538450
vn -0.111496 0.979947 -0.165147
vn -0.111496 0.979947 -0.165147
vn -0.111496 0.979947 -0.165147
vn -0.111496 0.979947 -0.165147
vn -0.024773 0.986335 -0.162877
vn -0.024773 0.986335 -0.162877
vn -0.024773 0.986335 -0.162877
vn -0.024773 0.986335 -0.162877
vn -0.117417 0.988784 -0.092306
vn -0.117417 0.988784 -0.092306
vn -0.117417 0.988784 -0.092306
vn -0.117417 0.988784 -0.092306
vn 0.559064 0.788924 -0.255044
vn 0.559064 0.788923 -0.255044
vn 0.559064 0.788924 -0.255044
vn 0.559064 0.788923 -0.255044
vn 0.518934 0.854147 -0.033773
vn 0.518935 0.854147 -0.033773
vn 0.518935 0.854147 -0.033773
vn 0.518935 0.854147 -0.033773
vn 0.530608 0.686555 -0.497089
vn 0.530608 0.686555 -0.497089
vn 0.530608 0.686555 -0.497089
vn 0.530608 0.686555 -0.497089
vn 0.026698 0.999534 -0.014821
vn 0.026698 0.999534 -0.014821
vn 0.026698 0.999534 -0.014821
vn 0.026698 0.999534 -0.014821
vn -0.031544 0.999147 0.026652
vn -0.031544 0.999147 0.026652
vn -0.031544 0.999147 0.026652
vn -0.031544 0.999147 0.026652
vn 0.449019 0.893470 0.009670
vn 0.449019 0.893470 0.009670
vn 0.449019 0.893470 0.009670
vn 0.449019 0.893470 0.009670
vn 0.038595 0.999098 -0.017694
vn 0.038595 0.999098 -0.017694
vn 0.038595 0.999098 -0.017694
vn 0.038595 0.999098 -0.017694
vn -0.003952 0.999677 -0.025122
vn -0.003952 0.999677 -0.025122
vn -0.003952 0.999677 -0.025122
vn -0.003952 0.999677 -0.025122
vn 0.460166 0.886876 0.041212
vn 0.460166 0.886876 0.041212
vn 0.460166 0.886876 0.041212
vn 0.460166 0.886876 0.041212
vn 0.024137 0.981036 0.192315
vn 0.024137 0.981036 0.192315
vn 0.024137 0.981036 0.192315
vn 0.024137 0.981036 0.192315
vn 0.066572 0.912077 0.404578
vn 0.066572 0.912077 0.404578
vn 0.066572 0.912077 0.404578
vn 0.066572 0.912077 0.404578
vn 0.409964 0.736222 0.538430
vn 0.409964 0.736222 0.538430
vn 0.409964 0.736222 0.538430
vn 0.409964 0.736222 0.538430
s off
g Floor:Group1360 Ground_And_Mushroom
usemtl Mushroom:StingrayPBS1SG
f 3/1/1 4/2/2 1/3/3 2/4/4
f 2/4/5 1/3/6 48/5/7 49/6/8
f 1/3/9 4/2/10 5/7/11 6/8/12
f 48/5/13 1/3/14 6/8/15 47/9/16
f 4/2/17 3/1/18 46/10/19 39/11/20
f 5/7/21 4/2/22 39/11/23 35/12/24
f 8/13/25 6/8/26 5/7/27 7/14/28
f 35/12/29 28/15/30 7/14/31 5/7/32
f 6/8/33 8/13/34 18/16/35 47/9/36
f 7/14/37 9/17/38 10/18/39 8/13/40
f 28/15/41 23/19/42 9/17/43 7/14/44
f 10/18/45 17/20/46 18/16/47 8/13/48
f 12/21/49 11/22/50 10/18/51 9/17/52
f 23/19/53 19/23/54 12/21/55 9/17/56
f 11/22/57 16/24/58 17/20/59 10/18/60
f 14/25/61 11/22/62 12/21/63 13/26/64
f 11/22/65 14/25/66 15/27/67 16/24/68
f 19/23/69 20/28/70 13/26/71 12/21/72
f 22/29/73 21/30/74 20/28/75 19/23/76
f 19/23/77 23/19/78 24/31/79 22/29/80
f 21/30/81 22/29/82 26/32/83 27/33/84
f 22/29/85 24/31/86 25/34/87 26/32/88
f 28/15/89 29/35/90 24/31/91 23/19/92
f 24/31/93 29/35/94 30/36/95 25/34/96
f 25/34/97 32/37/98 33/38/99 26/32/100
f 31/39/101 32/37/102 25/34/103 30/36/104
f 33/38/105 34/40/106 27/33/107 26/32/108
f 29/35/109 28/15/110 35/12/111 36/41/112
f 36/41/113 37/42/114 30/36/115 29/35/116
f 30/36/117 37/42/118 38/43/119 31/39/120
f 39/11/121 40/44/122 36/41/123 35/12/124
f 37/42/125 36/41/126 40/44/127 41/45/128
f 42/46/129 38/43/130 37/42/131 41/45/132
f 40/44/133 39/11/134 46/10/135 45/47/136
f 41/45/137 40/44/138 45/47/139 43/48/140
f 43/48/141 44/49/142 42/46/143 41/45/144
