# This file uses centimeters as units for non-parametric coordinates.

mtllib Mushroom_5.mtl
g default
v 0.748081 5.785150 0.602680
v 0.380680 5.754422 0.268636
v 0.139076 5.841661 0.607892
v 0.665701 5.731066 -0.024955
v 0.451214 5.770899 0.996728
v 1.059027 5.731706 0.226878
v 0.895014 5.587208 1.250632
v 1.357471 5.568339 0.655746
v 1.160046 5.545921 0.985102
v -0.130219 5.473153 -0.195907
v -0.415207 5.475425 0.551677
v 0.523624 5.348825 -0.576678
v 0.054764 5.372407 1.510316
v 1.454025 5.382393 -0.286590
v 1.109188 5.106062 1.798147
v 1.882202 5.094299 0.794847
v 1.743309 4.887863 1.524707
v -0.671309 3.540154 -0.678157
v -1.040468 3.876860 0.422978
v 0.273043 3.842600 -1.236962
v -0.862867 3.935435 1.351421
v 1.130424 3.971542 -1.256454
v 0.114382 4.283766 2.352983
v 2.196890 4.279321 -0.389884
v -0.501366 4.036557 2.019731
v 1.797283 4.050096 -0.995994
v 0.866377 4.127863 2.563713
v 2.532394 4.177266 0.376346
v 1.719654 4.017452 2.359509
v 2.500858 4.025500 1.342008
v 1.370758 3.848050 2.604775
v 2.651779 3.838165 0.913541
v 2.221880 3.840275 1.952877
v -0.511494 2.809702 -0.528583
v -0.844992 3.111448 0.465549
v 0.317745 3.179011 -1.068688
v -0.736149 3.134706 1.312625
v 1.100178 3.111744 -1.100587
v -0.406147 3.192373 1.945518
v 1.728804 3.146946 -0.871262
v 0.132553 3.359836 2.380946
v 2.215488 3.354491 -0.379313
v 0.802050 3.346568 2.576189
v 2.519779 3.302128 0.304440
v 1.331728 3.126026 2.524965
v 2.573034 3.149407 0.892941
v 1.737198 3.053348 2.351094
v 2.496183 3.050145 1.363324
v 2.173878 2.986936 1.911937
v 0.570522 2.621209 1.373868
v 1.377466 2.580913 0.305524
v 0.832439 2.566018 1.420348
v 1.474518 2.581102 0.580324
v 1.037537 2.463598 1.384992
v 1.487446 2.518484 0.810004
v 1.185627 2.425377 1.322793
v 1.456303 2.458232 0.978629
v 1.335190 2.404824 1.164026
v 1.214529 2.609000 0.103881
v 0.358295 2.643990 1.237435
v 0.962996 2.776929 -0.005889
v 0.213860 2.792868 0.985885
v 0.578039 3.202312 -0.084195
v 0.080835 3.168463 0.583081
v 0.210726 3.251077 0.140126
v 1.153400 1.942712 0.846209
v 1.020884 1.942377 1.016667
v 1.135448 1.823284 0.715720
v 0.901310 1.821353 1.016606
v 1.122471 1.919646 0.604770
v 0.796219 1.918719 1.025078
v 1.097446 1.951496 0.941135
v 1.058538 1.809545 0.506293
v 0.696766 1.809548 0.970490
v 0.987473 1.912423 0.423749
v 0.606516 1.913800 0.911487
v 0.873173 2.087861 0.372639
v 0.539236 2.092779 0.802969
v 0.696995 2.267702 0.360789
v 0.496664 2.272696 0.619498
v 0.853909 1.270608 0.452503
v 0.626678 1.278882 0.743243
v 0.782797 1.335802 0.416834
v 0.581226 1.343924 0.675811
v 0.695690 1.328918 0.414289
v 0.564619 1.334782 0.584361
v 0.550833 2.333522 0.448481
v 0.602524 1.347300 0.475156
v 0.679127 1.170271 0.762324
v 0.889868 1.162086 0.507357
v 0.725754 1.047975 0.746435
v 0.889652 1.041722 0.557727
v 0.798481 1.078624 0.739588
v 0.892334 1.075600 0.635818
v 0.853073 1.084143 0.694949
v 0.478289 0.625681 0.513686
v 0.645775 0.618511 0.310637
v 0.465378 0.636194 0.451089
v 0.579338 0.627903 0.302754
v 0.498682 0.625901 0.356351
v 0.697298 0.590133 0.338935
v 0.506548 0.597443 0.556712
v 0.721592 0.561022 0.379639
v 0.548313 0.567110 0.575250
v 0.722092 0.521143 0.427400
v 0.595879 0.524922 0.569383
v 0.710930 0.526448 0.476283
v 0.642385 0.528347 0.553330
v 0.679491 0.531649 0.517634
v 0.200771 -0.047553 0.041545
v 0.132189 -0.094843 0.111753
v 0.275179 -0.084973 -0.011678
v 0.112072 -0.151467 0.158624
v 0.323753 -0.134097 -0.024261
v 0.141567 -0.177427 0.199540
v 0.362669 -0.160507 0.000727
v 0.209383 -0.177533 0.243164
v 0.401888 -0.163117 0.061414
v 0.274576 -0.174095 0.256885
v 0.412090 -0.168908 0.123031
v 0.344086 -0.160006 0.252521
v 0.402010 -0.163629 0.185235
v 0.380808 -0.159005 0.226563
v -1.035715 -2.037553 -1.113675
v -1.014484 -2.050621 -1.186765
v -1.097141 -2.037701 -1.073356
v -1.024258 -2.062528 -1.282666
v -1.210102 -2.062017 -1.079257
v -1.064730 -2.073459 -1.367655
v -1.336166 -2.102392 -1.135051
v -1.120644 -2.071092 -1.431653
v -1.426281 -2.117530 -1.203711
v -1.151266 -2.007739 -1.434550
v -1.418249 -2.047312 -1.230181
v -1.206423 -1.950107 -1.407720
v -1.367802 -1.968966 -1.264447
v -1.272327 -1.892729 -1.320367
v -1.939350 -4.227318 -1.920495
v -1.864862 -4.220750 -2.083161
v -2.087997 -4.243388 -1.825166
v -1.881180 -4.215836 -2.234990
v -2.240820 -4.240929 -1.824254
v -1.951918 -4.245853 -2.378241
v -2.399418 -4.259599 -1.878955
v -2.049250 -4.242979 -2.470511
v -2.511351 -4.251009 -1.965665
v -2.207012 -4.271807 -2.535186
v -2.602997 -4.280784 -2.114640
v -2.385916 -4.299146 -2.525186
v -2.611858 -4.309654 -2.288462
v -2.528013 -4.254143 -2.431983
v -2.035786 -5.820666 -2.542495
v -2.561241 -5.822475 -1.937681
v -2.231329 -5.755057 -2.604775
v -2.651779 -5.755813 -2.119132
v -2.437519 -5.673854 -2.571139
v -2.647806 -5.674676 -2.326364
v -2.569956 -5.645771 -2.471805
v -1.922857 -5.834930 -2.435420
v -2.439289 -5.841661 -1.843600
v -1.840845 -5.748987 -2.269964
v -2.264854 -5.764661 -1.783595
v -1.842737 -5.674706 -2.087859
v -2.087597 -5.689238 -1.805375
v -1.929482 -5.618876 -1.913575
vt 0.115117 0.146188
vt 0.146910 0.145930
vt 0.147340 0.174571
vt 0.120860 0.172736
vt 0.178344 0.145387
vt 0.173496 0.172062
vt 0.121448 0.117833
vt 0.146305 0.114519
vt 0.171173 0.117181
vt 0.100747 0.201468
vt 0.147893 0.214056
vt 0.194007 0.200179
vt 0.073821 0.149205
vt 0.219403 0.147129
vt 0.103423 0.090617
vt 0.188280 0.089399
vt 0.145608 0.070382
vt 0.148408 0.264850
vt 0.077479 0.247139
vt 0.218908 0.244830
vt 0.039083 0.205376
vt 0.255578 0.201859
vt 0.032984 0.122459
vt 0.053679 0.077846
vt 0.024633 0.163773
vt 0.237655 0.075257
vt 0.259772 0.119160
vt 0.269266 0.160133
vt 0.101530 0.041240
vt 0.145046 0.029564
vt 0.073765 0.050139
vt 0.188907 0.039983
vt 0.217038 0.047911
vt 0.134518 0.285238
vt 0.081017 0.300282
vt 0.188411 0.299114
vt 0.046093 0.322250
vt 0.224125 0.320041
vt 0.023369 0.346667
vt 0.247798 0.343892
vt 0.010024 0.377058
vt 0.006743 0.411956
vt 0.261312 0.374010
vt 0.266058 0.408604
vt 0.011710 0.440402
vt 0.261865 0.437042
vt 0.021657 0.463095
vt 0.045239 0.489805
vt 0.252850 0.460003
vt 0.135113 0.326792
vt 0.102515 0.334853
vt 0.167788 0.334097
vt 0.077979 0.353005
vt 0.192670 0.351610
vt 0.063317 0.369414
vt 0.207742 0.367663
vt 0.057400 0.387473
vt 0.214660 0.385570
vt 0.056092 0.408872
vt 0.216557 0.406978
vt 0.059151 0.426451
vt 0.214104 0.424608
vt 0.064237 0.439541
vt 0.209510 0.437783
vt 0.076443 0.454006
vt 0.083744 0.395693
vt 0.080117 0.406507
vt 0.088511 0.383658
vt 0.192426 0.405284
vt 0.188444 0.394562
vt 0.183196 0.382675
vt 0.081123 0.419012
vt 0.191814 0.417815
vt 0.082278 0.431387
vt 0.191148 0.430236
vt 0.088954 0.441172
vt 0.172896 0.370615
vt 0.098368 0.371346
vt 0.155154 0.358513
vt 0.115703 0.358815
vt 0.135364 0.353841
vt 0.105428 0.428050
vt 0.171941 0.418978
vt 0.101090 0.419393
vt 0.172151 0.408851
vt 0.172242 0.399125
vt 0.100091 0.399660
vt 0.100519 0.409316
vt 0.169106 0.389254
vt 0.102851 0.389776
vt 0.161493 0.380647
vt 0.110096 0.381055
vt 0.150925 0.375077
vt 0.120324 0.375290
vt 0.135549 0.371824
vt 0.447751 0.011131
vt 0.436893 0.011858
vt 0.457267 0.010360
vt 0.378938 0.012453
vt 0.368632 0.011748
vt 0.359416 0.011021
vt 0.425301 0.012779
vt 0.390000 0.013142
vt 0.407690 0.013689
vt 0.349332 0.010162
vt 0.467501 0.009505
vt 0.341156 0.008316
vt 0.475761 0.007677
vt 0.332432 0.005607
vt 0.379255 0.030100
vt 0.392179 0.029760
vt 0.368599 0.029343
vt 0.440574 0.028484
vt 0.428211 0.028616
vt 0.450528 0.027821
vt 0.410727 0.029030
vt 0.461476 0.026236
vt 0.356623 0.027541
vt 0.471757 0.024580
vt 0.346571 0.025680
vt 0.482137 0.022389
vt 0.336256 0.023233
vt 0.328528 0.021211
vt 0.391013 0.076127
vt 0.409045 0.074688
vt 0.427695 0.075249
vt 0.377728 0.077262
vt 0.442069 0.075460
vt 0.365700 0.077831
vt 0.454588 0.075621
vt 0.353165 0.075769
vt 0.465989 0.074105
vt 0.340245 0.072638
vt 0.477176 0.071995
vt 0.326804 0.069352
vt 0.489663 0.069229
vt 0.315664 0.066644
vt 0.497979 0.120449
vt 0.301508 0.117243
vt 0.318056 0.121268
vt 0.483443 0.123026
vt 0.332589 0.123663
vt 0.469133 0.125798
vt 0.347862 0.126147
vt 0.456709 0.127193
vt 0.361334 0.127430
vt 0.441174 0.129030
vt 0.377289 0.129282
vt 0.424833 0.130429
vt 0.393280 0.130597
vt 0.408929 0.129622
vt 0.295613 0.145189
vt 0.505031 0.149149
vt 0.311800 0.149932
vt 0.489610 0.153648
vt 0.327057 0.154123
vt 0.473751 0.157623
vt 0.343093 0.157694
vt 0.460133 0.158893
vt 0.356742 0.158707
vt 0.441986 0.159014
vt 0.374943 0.158666
vt 0.423412 0.158028
vt 0.393685 0.157947
vt 0.408603 0.157724
vt 0.514970 0.116585
vt 0.521410 0.144329
vt 0.500364 0.066308
vt 0.489893 0.020319
vt 0.115422 0.423265
vt 0.157790 0.423431
vt 0.484556 0.005059
vt 0.161101 0.416687
vt 0.167954 0.427814
vt 0.111864 0.416667
vt 0.162021 0.410300
vt 0.110745 0.410367
vt 0.161746 0.402810
vt 0.110820 0.402956
vt 0.135736 0.384030
vt 0.123894 0.386882
vt 0.147549 0.386600
vt 0.117517 0.391112
vt 0.154386 0.390782
vt 0.113006 0.396759
vt 0.159311 0.396523
vt 0.184883 0.440291
vt 0.197846 0.452633
vt 0.144800 0.013720
vt 0.230141 0.487436
vt 0.193781 0.021009
vt 0.225570 0.038033
vt 0.096127 0.022579
vt 0.064563 0.040143
vt 0.254305 0.068712
vt 0.038240 0.072605
vt 0.277111 0.114123
vt 0.285819 0.163740
vt 0.015605 0.117918
vt 0.009255 0.167575
vt 0.268427 0.211714
vt 0.027322 0.215028
vt 0.224785 0.255529
vt 0.070983 0.259572
vt 0.148767 0.287900
vn -0.134546 0.897170 0.420695
vn 0.192299 0.978301 0.077129
vn -0.189599 0.945088 -0.266196
vn -0.368608 0.925385 0.088270
vn 0.392473 0.896756 -0.204432
vn 0.026804 0.899799 -0.435480
vn 0.213202 0.825582 0.522455
vn 0.462960 0.820048 0.336437
vn 0.574030 0.812581 0.101001
vn -0.867188 0.497378 -0.024480
vn -0.678841 0.470265 -0.563937
vn -0.202139 0.518916 -0.830582
vn -0.554818 0.616299 0.558886
vn 0.476570 0.654229 -0.587253
vn 0.188349 0.675678 0.712730
vn 0.757906 0.650389 0.050717
vn 0.627683 0.612224 0.480828
vn -0.773258 0.127202 -0.621202
vn -0.971360 0.222460 -0.083490
vn -0.280030 0.245955 -0.927949
vn -0.897126 0.243370 0.368695
vn 0.205908 0.281475 -0.937216
vn -0.385785 0.435888 0.813125
vn -0.025339 0.420245 0.907057
vn -0.737439 0.256311 0.624890
vn 0.901410 0.396472 -0.173985
vn 0.775398 0.403470 -0.485768
vn 0.556581 0.251085 -0.791943
vn 0.510985 0.402529 0.759516
vn 0.760687 0.276076 0.587484
vn 0.257963 0.256164 0.931577
vn 0.863575 0.388410 0.321522
vn 0.970993 0.230756 0.062653
vn -0.450697 -0.821477 -0.349355
vn -0.736471 -0.674567 -0.050699
vn -0.217263 -0.678462 -0.701774
vn -0.769709 -0.615180 0.170593
vn -0.010711 -0.654087 -0.756343
vn -0.608907 -0.541584 0.579586
vn 0.498045 -0.559557 -0.662455
vn -0.363154 -0.423242 0.830052
vn -0.223153 -0.430369 0.874634
vn 0.796992 -0.399391 -0.453090
vn 0.839415 -0.437730 -0.322142
vn 0.033799 -0.567151 0.822920
vn 0.844927 -0.526454 -0.094578
vn 0.460850 -0.501674 0.732080
vn 0.681138 -0.517682 0.517742
vn 0.832289 -0.495761 0.248026
vn 0.037035 -0.999179 -0.016453
vn -0.221824 -0.971475 -0.083844
vn -0.135211 -0.972436 -0.189962
vn -0.525308 -0.849671 -0.045946
vn -0.209591 -0.855691 -0.473144
vn -0.434948 -0.826983 0.356258
vn 0.307161 -0.840214 -0.446870
vn -0.244253 -0.787253 0.566191
vn 0.559296 -0.772083 -0.301788
vn -0.236734 -0.768404 0.594570
vn 0.578045 -0.772415 -0.263132
vn -0.107363 -0.794815 0.597279
vn 0.589111 -0.786554 -0.185153
vn 0.224139 -0.848615 0.479180
vn 0.548114 -0.833525 0.069327
vn 0.424757 -0.852184 0.305555
vn -0.461341 -0.370440 0.806188
vn -0.169325 -0.458240 0.872551
vn -0.785560 -0.359637 0.503545
vn 0.875579 -0.411789 -0.252568
vn 0.774617 -0.334155 -0.536943
vn 0.415497 -0.355853 -0.837097
vn 0.067406 -0.423411 0.903427
vn 0.926399 -0.367865 -0.080381
vn 0.496338 -0.512527 0.700689
vn 0.825960 -0.475514 0.302783
vn 0.691674 -0.487402 0.532941
vn -0.075887 -0.331230 -0.940493
vn -0.942744 -0.318359 0.099406
vn -0.420043 -0.346125 -0.838905
vn -0.919789 -0.332851 -0.207841
vn -0.738474 -0.362705 -0.568420
vn 0.704903 -0.380047 0.598895
vn 0.915054 -0.346806 0.205915
vn 0.343710 -0.381799 0.857958
vn 0.949614 -0.265172 -0.167084
vn 0.839205 -0.172290 -0.515802
vn -0.413495 -0.227620 0.881596
vn -0.048329 -0.313734 0.948280
vn 0.550402 -0.089809 -0.830055
vn -0.780314 -0.130443 0.611633
vn 0.186892 -0.034453 -0.981776
vn -0.952301 -0.065120 0.298130
vn -0.287410 0.038382 -0.957038
vn -0.994858 0.010944 -0.100688
vn -0.789742 0.031777 -0.612616
vn 0.685603 -0.015444 -0.727812
vn 0.335530 0.152961 -0.929528
vn 0.880313 -0.179903 -0.438957
vn -0.906975 0.124509 0.402361
vn -0.678708 -0.052926 0.732499
vn -0.373466 -0.216595 0.902003
vn -0.225935 0.332570 -0.915615
vn -0.945053 0.304650 -0.118587
vn -0.694942 0.404251 -0.594674
vn 0.017440 -0.381382 0.924253
vn 0.931597 -0.361132 -0.041363
vn 0.434338 -0.455496 0.777093
vn 0.814736 -0.446226 0.370254
vn 0.655307 -0.462115 0.597514
vn -0.846398 0.379269 0.373852
vn -0.779163 0.620490 -0.088872
vn -0.666755 -0.009285 0.745219
vn 0.367692 0.337672 -0.866476
vn -0.087502 0.598442 -0.796373
vn 0.710193 -0.021592 -0.703676
vn -0.512824 0.685385 -0.516971
vn 0.859805 -0.324408 -0.394329
vn -0.336682 -0.336127 0.879582
vn 0.838264 -0.543366 -0.045461
vn 0.020557 -0.556530 0.830573
vn 0.717106 -0.648458 0.255463
vn 0.316016 -0.648712 0.692320
vn 0.543027 -0.675863 0.498328
vn -0.800940 0.578602 -0.153999
vn -0.529815 0.674039 -0.514750
vn -0.187072 0.561969 -0.805726
vn -0.885033 0.420135 0.200509
vn 0.184139 0.391429 -0.901597
vn -0.742671 0.137299 0.655430
vn 0.575052 0.133544 -0.807144
vn -0.444420 -0.141359 0.884595
vn 0.841042 -0.155880 -0.518025
vn -0.100056 -0.377544 0.920570
vn 0.907203 -0.378719 -0.183179
vn 0.292008 -0.549378 0.782889
vn 0.829211 -0.526342 0.188077
vn 0.612774 -0.589791 0.525980
vn 0.963670 -0.219144 0.152696
vn 0.737886 -0.279871 0.614163
vn 0.278904 -0.217365 0.935396
vn 0.953576 -0.118458 -0.276877
vn -0.183438 -0.114699 0.976317
vn 0.800625 0.004820 -0.599147
vn -0.493158 -0.002278 0.869937
vn 0.501775 0.122971 -0.856213
vn -0.777751 0.114625 0.618033
vn 0.093734 0.238316 -0.966654
vn -0.951593 0.238509 0.193868
vn -0.311626 0.301625 -0.901061
vn -0.926702 0.292116 -0.236413
vn -0.664384 0.426049 -0.614065
vn 0.752463 0.010550 0.658550
vn 0.988043 0.017494 0.153184
vn 0.265154 0.016390 0.964067
vn 0.947599 0.029707 -0.318079
vn -0.200005 0.026929 0.979425
vn 0.794151 0.036693 -0.606612
vn -0.481773 0.032039 0.875710
vn 0.529219 0.041336 -0.847478
vn -0.751211 0.033364 0.659218
vn 0.172590 0.043580 -0.984029
vn -0.947656 0.032005 0.317685
vn -0.290435 0.044919 -0.955840
vn -0.983291 0.033973 -0.178842
vn -0.740207 0.042663 -0.671024
s 1
g Group5171 Floor:group19
usemtl Mushroom:StingrayPBS1SG
f 5/1/1 1/2/2 2/3/3 3/4/4
f 6/5/5 4/6/6 2/3/3 1/2/2
f 5/1/1 7/7/7 9/8/8 1/2/2
f 6/5/5 1/2/2 9/8/8 8/9/9
f 11/10/10 3/4/4 2/3/3 10/11/11
f 12/12/12 10/11/11 2/3/3 4/6/6
f 11/10/10 13/13/13 5/1/1 3/4/4
f 12/12/12 4/6/6 6/5/5 14/14/14
f 13/13/13 15/15/15 7/7/7 5/1/1
f 14/14/14 6/5/5 8/9/9 16/16/16
f 17/17/17 9/8/8 7/7/7 15/15/15
f 17/17/17 16/16/16 8/9/9 9/8/8
f 18/18/18 19/19/19 11/10/10 10/11/11
f 18/18/18 10/11/11 12/12/12 20/20/20
f 13/13/13 11/10/10 19/19/19 21/21/21
f 14/14/14 22/22/22 20/20/20 12/12/12
f 15/15/15 13/13/13 23/23/23 27/24/24
f 21/21/21 25/25/25 23/23/23 13/13/13
f 16/16/16 28/26/26 24/27/27 14/14/14
f 22/22/22 14/14/14 24/27/27 26/28/28
f 15/15/15 29/29/29 33/30/30 17/17/17
f 15/15/15 27/24/24 31/31/31 29/29/29
f 16/16/16 17/17/17 33/30/30 30/32/32
f 16/16/16 30/32/32 32/33/33 28/26/26
f 34/205/34 35/204/35 19/19/19 18/18/18
f 34/205/34 18/18/18 20/20/20 36/203/36
f 37/202/37 21/21/21 19/19/19 35/204/35
f 38/201/38 36/203/36 20/20/20 22/22/22
f 25/25/25 21/21/21 37/202/37 39/200/39
f 26/28/28 40/198/40 38/201/38 22/22/22
f 39/200/39 41/199/41 23/23/23 25/25/25
f 27/24/24 23/23/23 41/199/41 43/196/42
f 40/198/40 26/28/28 24/27/27 42/197/43
f 28/26/26 44/195/44 42/197/43 24/27/27
f 43/196/42 45/194/45 31/31/31 27/24/24
f 44/195/44 28/26/26 32/33/33 46/192/46
f 45/194/45 47/193/47 29/29/29 31/31/31
f 29/29/29 47/193/47 49/189/48 33/30/30
f 46/192/46 32/33/33 30/32/32 48/191/49
f 30/32/32 33/30/30 49/189/48 48/191/49
f 35/35/35 34/34/34 65/50/50 64/51/51
f 36/36/36 63/52/52 65/50/50 34/34/34
f 37/37/37 35/35/35 64/51/51 62/53/53
f 38/38/38 61/54/54 63/52/52 36/36/36
f 39/39/39 37/37/37 62/53/53 60/55/55
f 40/40/40 59/56/56 61/54/54 38/38/38
f 41/41/41 39/39/39 60/55/55 50/57/57
f 42/43/43 51/58/58 59/56/56 40/40/40
f 43/42/42 41/41/41 50/57/57 52/59/59
f 44/44/44 53/60/60 51/58/58 42/43/43
f 43/42/42 52/59/59 54/61/61 45/45/45
f 44/44/44 46/46/46 55/62/62 53/60/60
f 45/45/45 54/61/61 56/63/63 47/47/47
f 46/46/46 48/49/49 57/64/64 55/62/62
f 47/47/47 56/63/63 58/65/65 49/48/48
f 48/49/49 49/190/48 58/188/65 57/64/64
f 50/57/57 74/66/66 71/67/67 52/59/59
f 60/55/55 76/68/68 74/66/66 50/57/57
f 51/58/58 53/60/60 70/69/69 73/70/70
f 59/56/56 51/58/58 73/70/70 75/71/71
f 54/61/61 52/59/59 71/67/67 69/72/72
f 55/62/62 68/73/73 70/69/69 53/60/60
f 69/72/72 67/74/74 56/63/63 54/61/61
f 68/73/73 55/62/62 57/64/64 66/75/75
f 56/63/63 67/74/74 72/76/76 58/65/65
f 57/64/64 58/188/65 72/187/76 66/75/75
f 59/56/56 75/71/71 77/77/77 61/54/54
f 60/55/55 62/53/53 78/78/78 76/68/68
f 63/52/52 61/54/54 77/77/77 79/79/79
f 64/51/51 80/80/80 78/78/78 62/53/53
f 63/52/52 79/79/79 87/81/81 65/50/50
f 64/51/51 65/50/50 87/81/81 80/80/80
f 66/75/75 72/187/76 95/174/82 94/83/83
f 67/74/74 93/84/84 95/82/82 72/76/76
f 70/69/69 92/85/85 90/86/86 73/70/70
f 71/67/67 74/66/66 89/87/87 91/88/88
f 73/70/70 90/86/86 81/89/89 75/71/71
f 74/66/66 76/68/68 82/90/90 89/87/87
f 75/71/71 81/89/89 83/91/91 77/77/77
f 76/68/68 78/78/78 84/92/92 82/90/90
f 79/79/79 77/77/77 83/91/91 85/93/93
f 80/80/80 86/94/94 84/92/92 78/78/78
f 87/81/81 79/79/79 85/93/93 88/95/95
f 87/81/81 88/95/95 86/94/94 80/80/80
f 83/91/91 81/89/89 101/186/96 97/184/97
f 81/89/89 90/86/86 103/178/98 101/186/96
f 84/92/92 96/183/99 102/185/100 82/90/90
f 82/90/90 102/185/100 104/179/101 89/87/87
f 85/93/93 83/91/91 97/184/97 99/182/102
f 86/94/94 98/181/103 96/183/99 84/92/92
f 88/95/95 85/93/93 99/182/102 100/180/104
f 88/95/95 100/180/104 98/181/103 86/94/94
f 89/87/87 104/179/101 106/177/105 91/88/88
f 90/86/86 92/85/85 105/176/106 103/178/98
f 93/84/84 91/88/88 106/177/105 108/175/107
f 94/83/83 107/173/108 105/176/106 92/85/85
f 95/82/82 93/84/84 108/175/107 109/170/109
f 95/174/82 109/171/109 107/173/108 94/83/83
f 113/110/110 96/99/99 98/103/103 111/111/111
f 96/99/99 113/110/110 115/112/112 102/100/100
f 114/113/113 112/114/114 99/102/102 97/97/97
f 97/97/97 101/96/96 116/115/115 114/113/113
f 98/103/103 100/104/104 110/116/116 111/111/111
f 99/102/102 112/114/114 110/116/116 100/104/104
f 101/96/96 103/98/98 118/117/117 116/115/115
f 102/100/100 115/112/112 117/118/118 104/101/101
f 103/98/98 105/106/106 120/119/119 118/117/117
f 104/101/101 117/118/118 119/120/120 106/105/105
f 122/121/121 120/119/119 105/106/106 107/108/108
f 121/122/122 108/107/107 106/105/105 119/120/120
f 107/108/108 109/172/109 123/169/123 122/121/121
f 108/107/107 121/122/122 123/123/123 109/109/109
f 136/124/124 111/111/111 110/116/116 137/125/125
f 135/126/126 137/125/125 110/116/116 112/114/114
f 111/111/111 136/124/124 134/127/127 113/110/110
f 112/114/114 114/113/113 133/128/128 135/126/126
f 132/129/129 115/112/112 113/110/110 134/127/127
f 131/130/130 133/128/128 114/113/113 116/115/115
f 132/129/129 130/131/131 117/118/118 115/112/112
f 131/130/130 116/115/115 118/117/117 129/132/132
f 130/131/131 128/133/133 119/120/120 117/118/118
f 129/132/132 118/117/117 120/119/119 127/134/134
f 128/133/133 126/135/135 121/122/122 119/120/120
f 127/134/134 120/119/119 122/121/121 125/136/136
f 126/135/135 124/137/137 123/123/123 121/122/122
f 125/136/136 122/121/121 123/169/123 124/168/137
f 139/138/138 125/136/136 124/168/137 138/166/139
f 140/140/140 138/139/139 124/137/137 126/135/135
f 125/136/136 139/138/138 141/141/141 127/134/134
f 126/135/135 128/133/133 142/142/142 140/140/140
f 143/143/143 129/132/132 127/134/134 141/141/141
f 144/144/144 142/142/142 128/133/133 130/131/131
f 129/132/132 143/143/143 145/145/145 131/130/130
f 130/131/131 132/129/129 146/146/146 144/144/144
f 147/147/147 133/128/128 131/130/130 145/145/145
f 148/148/148 146/146/146 132/129/129 134/127/127
f 149/149/149 135/126/126 133/128/128 147/147/147
f 150/150/150 148/148/148 134/127/127 136/124/124
f 137/125/125 135/126/126 149/149/149 151/151/151
f 137/125/125 151/151/151 150/150/150 136/124/124
f 139/138/138 138/166/139 165/167/152 163/153/153
f 140/140/140 164/154/154 165/152/152 138/139/139
f 161/155/155 141/141/141 139/138/138 163/153/153
f 162/156/156 164/154/154 140/140/140 142/142/142
f 159/157/157 143/143/143 141/141/141 161/155/155
f 160/158/158 162/156/156 142/142/142 144/144/144
f 159/157/157 152/159/159 145/145/145 143/143/143
f 160/158/158 144/144/144 146/146/146 153/160/160
f 152/159/159 154/161/161 147/147/147 145/145/145
f 153/160/160 146/146/146 148/148/148 155/162/162
f 154/161/161 156/163/163 149/149/149 147/147/147
f 155/162/162 148/148/148 150/150/150 157/164/164
f 151/151/151 149/149/149 156/163/163 158/165/165
f 151/151/151 158/165/165 157/164/164 150/150/150
f 70/69/69 68/73/73 94/83/83 92/85/85
f 66/75/75 94/83/83 68/73/73
f 71/67/67 91/88/88 93/84/84 69/72/72
f 69/72/72 93/84/84 67/74/74
