# This file uses centimeters as units for non-parametric coordinates.

mtllib Rock.mtl
g default
v 2.752669 4.026485 -1.614546
v 3.452243 3.748465 2.121525
v 4.324630 0.197265 1.109070
v 3.711494 -0.022147 -2.473902
v 3.675933 -1.487456 2.609678
v 0.774245 -5.820840 2.594583
v 1.446658 -1.049453 5.861496
v 3.491756 1.338397 4.104372
v 2.486976 2.996985 4.712078
v -0.073853 3.910069 5.903135
v 0.606464 6.074706 2.993572
v 0.492843 7.464691 0.441521
v 0.992088 7.504183 -2.119372
v 2.084232 4.567882 -3.899311
v 1.655990 1.498727 -5.873373
v 1.374469 -1.697980 -5.213466
v 1.660331 -6.471744 -3.962737
v 1.601302 -7.880786 -3.963135
v 3.379977 -5.991393 -1.549856
v -1.785947 -8.475368 -0.956542
v 3.066863 -4.748927 1.160601
v -0.547276 -8.836030 -3.237538
v 1.592479 -7.570964 0.178460
v -0.731164 2.157844 6.963604
v -3.272908 0.681968 5.316645
v -1.988709 -2.153441 5.077337
v -3.355683 -7.418635 0.085915
v -4.327546 -5.225095 -1.262798
v -3.382302 -4.863441 -3.164383
v 0.501640 -5.247233 -5.084973
v 2.620658 -4.183806 -3.874546
v -1.649953 -3.552670 -5.256867
v -0.854337 -0.703952 -6.400370
v -0.331048 3.848022 -6.711319
v -2.327798 1.944389 -5.696467
v -0.042485 6.385407 -5.136480
v -1.044694 8.014046 -2.451803
v -3.240331 -0.906241 -3.925236
v -4.220143 -1.458238 -1.814160
v -2.662614 -5.589875 2.337086
v -4.741383 -1.907460 0.473463
v -4.824601 2.051648 -0.232678
v -5.268514 1.541780 1.259071
v -4.795129 2.936831 3.349706
v -2.992833 2.628245 6.117954
v -2.037370 3.346264 6.574131
v -1.783330 6.162268 3.020573
v -1.891778 4.510449 5.649345
v -1.997949 7.401929 0.992416
v -3.772347 5.416168 2.708330
v -3.474252 6.426183 0.285312
v -3.569077 3.839190 5.085152
v -4.722407 4.258258 1.164272
v -4.129655 1.943795 -1.876921
v -3.809197 4.354371 -1.939226
v -2.497762 6.732805 -3.261158
vt 0.922927 0.832623
vt 0.968647 0.787465
vt 0.676220 0.792884
vt 0.723856 0.755836
vt 0.756856 0.695882
vt 0.791455 0.698152
vt 0.652380 0.743321
vt 0.699077 0.735081
vt 0.727827 0.704535
vt 0.902669 0.807454
vt 0.924503 0.795233
vt 0.868805 0.797553
vt 0.983187 0.684238
vt 0.608982 0.805869
vt 0.949671 0.764111
vt 0.958744 0.718216
vt 0.907586 0.762073
vt 0.619496 0.764439
vt 0.930599 0.708070
vt 0.950835 0.681746
vt 0.919234 0.658909
vt 0.934184 0.638811
vt 0.880693 0.731906
vt 0.894447 0.693184
vt 0.899777 0.666503
vt 0.871624 0.777311
vt 0.852858 0.747084
vt 0.780009 0.651027
vt 0.846873 0.790953
vt 0.854696 0.779831
vt 0.752235 0.657877
vt 0.720332 0.679941
vt 0.693308 0.700555
vt 0.663139 0.707890
vt 0.876396 0.599039
vt 0.613138 0.723244
vt 0.634960 0.686730
vt 0.573543 0.783645
vt 0.956780 0.630104
vt 0.575464 0.816635
vt 0.875786 0.632921
vt 0.874782 0.656601
vt 0.849005 0.768145
vt 0.842641 0.683925
vt 0.818642 0.748825
vt 0.812749 0.715282
vt 0.832451 0.772561
vt 0.832979 0.657048
vt 0.826819 0.627192
vt 0.682363 0.635023
vt 0.793099 0.674784
vt 0.730967 0.636413
vt 0.698864 0.665008
vt 0.797505 0.701336
vt 0.790780 0.747183
vt 0.758575 0.614917
vt 0.805229 0.782139
vt 0.825051 0.813772
vt 0.718175 0.601160
vt 0.668831 0.599039
vt 0.648465 0.624656
vt 0.594452 0.671775
vt 0.573235 0.734191
vt 0.919167 0.600335
vt 0.559064 0.828905
vt 0.610103 0.850792
vt 0.858801 0.837010
vt 0.723793 0.822952
vt 0.773805 0.769934
vn 0.866279 0.482682 0.128759
vn 0.999430 0.033637 -0.002794
vn 0.940356 0.046402 -0.337012
vn 0.913806 0.383835 -0.132776
vn 0.555477 0.814625 0.166829
vn 0.520576 0.766257 0.376632
vn 0.641439 0.059683 -0.764849
vn 0.836471 0.376947 -0.397777
vn 0.666737 0.734593 -0.125838
vn 0.678927 0.366275 0.636319
vn 0.827826 0.052461 0.558526
vn 0.369279 0.654518 0.659726
vn 0.917488 -0.395110 -0.045877
vn 0.839900 -0.114773 -0.530467
vn 0.835963 -0.322735 0.443856
vn 0.809428 -0.404082 0.426080
vn 0.337419 -0.363716 0.868251
vn 0.577006 -0.166046 -0.799683
vn 0.275676 -0.652537 0.705832
vn 0.430558 -0.825524 0.364870
vn -0.379046 -0.921151 0.088342
vn -0.219786 -0.875593 -0.430152
vn -0.460051 -0.456717 0.761422
vn -0.512716 -0.539420 0.667943
vn -0.642993 -0.688308 0.335846
vn 0.080253 -0.095422 0.992197
vn -0.686379 -0.292846 0.665677
vn -0.151066 0.842368 0.517295
vn -0.130678 0.760381 0.636196
vn -0.253332 0.262937 0.930960
vn -0.266566 0.928354 0.259038
vn -0.049185 0.980712 -0.189170
vn 0.068647 0.606432 -0.792167
vn -0.027079 0.331404 -0.943100
vn -0.445490 -0.286410 -0.848238
vn -0.194738 -0.218101 -0.956300
vn -0.658612 0.101429 -0.745615
vn 0.085677 -0.282083 -0.955557
vn 0.431904 -0.738713 -0.517458
vn 0.741616 -0.189061 -0.643632
vn -0.786872 -0.323952 -0.525250
vn -0.951107 -0.304872 -0.049484
vn -0.652960 -0.029436 0.756820
vn -0.950025 -0.220521 0.220961
vn -0.937002 0.009462 0.349197
vn -0.981105 -0.115860 0.154947
vn -0.724581 0.427090 0.540903
vn -0.915585 -0.036081 -0.400504
vn -0.829149 -0.051847 -0.556618
vn -0.904256 0.236168 -0.355733
vn -0.913511 0.069395 -0.400851
vn -0.784599 0.615500 -0.074589
vn -0.750210 0.489844 -0.444116
vn -0.959601 0.072497 -0.271866
vn -0.934052 0.353896 -0.048004
vn -0.705607 0.639292 0.305655
s 1
g Group5186 Rock:Rock1
usemtl Statue_Hand2:StingrayPBS1SG
f 2/69/1 3/68/2 4/3/3 1/4/4
f 1/4/4 12/5/5 11/6/6 2/69/1
f 4/3/3 15/7/7 14/8/8 1/4/4
f 12/5/5 1/4/4 14/8/8 13/9/9
f 3/2/2 2/1/1 9/10/10 8/11/11
f 10/12/12 9/10/10 2/1/1 11/67/6
f 3/68/2 19/66/13 31/14/14 4/3/3
f 19/13/13 3/2/2 5/15/15 21/16/16
f 7/17/17 5/15/15 3/2/2 8/11/11
f 15/7/7 4/3/3 31/14/14 16/18/18
f 7/17/17 6/19/19 21/16/16 5/15/15
f 19/13/13 21/16/16 6/19/19 23/20/20
f 6/19/19 20/21/21 22/22/22 23/20/20
f 7/17/17 26/23/23 40/24/24 6/19/19
f 6/19/19 40/24/24 27/25/25 20/21/21
f 24/26/26 25/27/27 26/23/23 7/17/17
f 10/12/12 11/67/6 47/58/28 48/29/29
f 24/26/26 10/12/12 48/29/29 46/30/30
f 11/6/6 12/5/5 49/31/31 47/28/28
f 49/31/31 12/5/5 13/9/9 37/32/32
f 14/8/8 36/33/33 37/32/32 13/9/9
f 15/7/7 34/34/34 36/33/33 14/8/8
f 32/63/35 33/36/36 15/7/7 16/18/18
f 33/36/36 35/37/37 34/34/34 15/7/7
f 32/63/35 16/18/18 31/14/14 30/38/38
f 31/14/14 19/66/13 18/65/39 17/40/40
f 18/65/39 30/38/38 31/14/14 17/40/40
f 23/20/20 22/22/22 18/39/39 19/13/13
f 32/35/35 30/64/38 18/39/39 22/22/22
f 32/35/35 22/22/22 20/21/21 29/41/41
f 29/41/41 20/21/21 27/25/25 28/42/42
f 25/27/27 24/26/26 46/30/30 45/43/43
f 25/27/27 41/44/44 40/24/24 26/23/23
f 41/44/44 25/27/27 44/45/45 43/46/46
f 44/45/45 25/27/27 45/43/43 52/47/47
f 41/44/44 28/42/42 27/25/25 40/24/24
f 41/44/44 39/48/48 29/41/41 28/42/42
f 39/48/48 38/49/49 32/35/35 29/41/41
f 35/37/37 33/36/36 32/63/35 38/62/49
f 55/50/50 35/37/37 38/62/49 54/61/51
f 35/37/37 55/50/50 51/52/52 56/53/53
f 51/52/52 49/31/31 37/32/32 56/53/53
f 42/54/54 54/51/51 38/49/49 39/48/48
f 39/48/48 41/44/44 43/46/46 42/54/54
f 44/45/45 53/55/55 42/54/54 43/46/46
f 53/59/55 55/50/50 54/61/51 42/60/54
f 52/47/47 50/57/56 53/55/55 44/45/45
f 48/29/29 52/47/47 45/43/43 46/30/30
f 47/58/28 50/57/56 52/47/47 48/29/29
f 50/56/56 47/28/28 49/31/31 51/52/52
f 55/50/50 53/59/55 50/56/56 51/52/52
f 7/17/17 8/11/11 9/10/10 24/26/26
f 10/12/12 24/26/26 9/10/10
f 34/34/34 35/37/37 56/53/53 36/33/33
f 56/53/53 37/32/32 36/33/33
