# This file uses centimeters as units for non-parametric coordinates.

mtllib Floor.mtl
g default
v 6.681874 -0.042149 -18.017191
v 0.821085 -0.042149 -18.017187
v 6.681874 0.130439 -18.017191
v 0.821085 0.130439 -18.017187
v 6.681874 0.130439 -12.131682
v 0.821090 0.130439 -12.131687
v 6.681874 -0.042149 -12.131682
v 0.821090 -0.042149 -12.131687
vt 0.975938 0.813064
vt 0.496338 0.863255
vt 0.652825 0.802486
vt 0.024086 0.862953
vt 0.971879 0.913143
vt 0.008337 0.155279
vt 0.966448 0.770880
vt 0.499627 0.863255
vt 0.966448 0.493122
vt 0.689856 0.493122
vt 0.498330 0.813064
vt 0.498330 0.862953
vt 0.501695 0.813064
vt 0.501695 0.862953
vt 0.689856 0.770880
vt 0.024086 0.813064
vt 0.971879 0.863255
vt 0.024086 0.863255
vt 0.499627 0.913143
vt 0.652825 0.155279
vt 0.496338 0.913143
vt 0.008337 0.802486
vt 0.024086 0.913143
vt 0.975938 0.862953
vn -0.000001 0.000000 -1.000000
vn -0.000001 0.000000 -1.000000
vn -0.000001 0.000000 -1.000000
vn -0.000001 0.000000 -1.000000
vn 0.000000 1.000000 0.000000
vn 0.000000 1.000000 0.000000
vn 0.000000 1.000000 0.000000
vn 0.000000 1.000000 0.000000
vn -0.000001 0.000000 1.000000
vn -0.000001 0.000000 1.000000
vn -0.000001 0.000000 1.000000
vn -0.000001 0.000000 1.000000
vn 0.000000 -1.000000 0.000000
vn 0.000000 -1.000000 0.000000
vn 0.000000 -1.000000 0.000000
vn 0.000000 -1.000000 0.000000
vn -1.000000 0.000000 0.000001
vn -1.000000 0.000000 0.000001
vn -1.000000 0.000000 0.000001
vn -1.000000 0.000000 0.000001
vn 1.000000 0.000000 0.000000
vn 1.000000 0.000000 0.000000
vn 1.000000 0.000000 0.000000
vn 1.000000 0.000000 0.000000
s off
g Props_48 Props
usemtl Floor1SG
f 1/18/1 2/2/2 4/21/3 3/23/4
f 4/22/5 6/6/6 5/20/7 3/3/8
f 5/5/9 6/19/10 8/8/11 7/17/12
f 7/7/13 8/15/14 2/10/15 1/9/16
f 2/16/17 8/11/18 6/12/19 4/4/20
f 7/13/21 1/1/22 3/24/23 5/14/24
